<svg width="436" height="69" viewBox="0 0 436 69" fill="none" xmlns="http://www.w3.org/2000/svg">
<path d="M65.256 61.2C59.368 54.672 58.216 18.32 65.256 11.408C66.408 10.384 67.176 9.36 67.304 8.336C67.56 6.032 61.928 4.112 57.32 4.112C52.584 4.112 46.952 6.032 47.208 8.336C47.464 9.36 48.232 10.384 49.256 11.408C54.504 16.528 55.144 37.392 52.84 50.704C42.216 41.488 45.928 4.112 20.712 4.112H10.984C6.376 4.112 0.744 6.032 1 8.336C1.128 9.36 1.896 10.384 2.92 11.408C10.088 18.32 8.808 54.672 2.92 61.2C2.024 62.224 1.128 63.12 1 64.144C0.744 66.576 6.376 68.368 10.984 68.368C15.72 68.368 21.352 66.576 20.968 64.144C20.84 63.12 20.072 62.224 19.048 61.2C14.696 56.336 12.776 34.832 15.208 21.392C21.992 31.632 21.736 68.368 54.248 68.368C61.928 68.368 67.56 66.576 67.304 64.144C67.176 63.12 66.28 62.224 65.256 61.2ZM88.683 23.952C75.499 23.952 64.875 33.936 64.875 46.224C64.875 58.512 75.499 68.368 88.683 68.368C101.867 68.368 112.619 58.512 112.619 46.224C112.619 33.936 101.867 23.952 88.683 23.952ZM88.683 63.76C85.739 63.76 83.435 55.952 83.435 46.48C83.435 37.008 85.739 29.328 88.683 29.328C91.627 29.328 94.059 37.008 94.059 46.48C94.059 55.952 91.627 63.76 88.683 63.76ZM171.734 60.688C165.846 54.544 169.558 31.76 170.326 28.048C172.118 19.856 159.958 26.128 155.606 28.304C151.126 30.608 144.47 33.296 143.958 37.136C143.702 39.056 145.494 40.08 146.774 41.744C147.798 43.152 149.462 46.224 149.718 50.832V51.728C149.718 55.312 149.334 58.64 148.438 60.176C147.286 62.096 145.878 63.376 144.342 63.376C143.318 63.376 142.422 63.12 141.526 62.48C134.742 54.672 139.35 31.76 140.118 28.048C141.91 19.856 129.878 26.128 125.398 28.304C121.046 30.608 114.518 33.168 113.75 36.88V37.392C113.622 39.184 115.286 40.08 116.566 41.744C119.254 45.2 119.126 50.704 119.126 54.416V55.056C119.766 64.528 131.286 68.368 138.966 68.368H139.478C140.758 68.368 141.526 68.368 142.166 68.112C146.646 67.344 148.566 64.912 151.126 64.912C153.814 64.912 157.91 68.368 163.67 68.368C168.662 68.368 173.654 67.728 174.166 63.888C174.422 62.352 172.758 61.968 171.734 60.688ZM224.667 4.112H189.851C182.043 4.112 174.875 5.13599 174.875 10C174.875 12.048 176.283 14.736 177.435 16.272C181.019 21.392 182.555 50.064 177.947 55.568C176.539 57.36 174.875 60.176 174.875 62.48C174.875 67.472 182.043 68.368 189.851 68.368H191.003C198.811 68.368 205.979 67.472 205.979 62.48C205.979 60.176 204.315 57.36 202.779 55.568C201.371 53.776 200.475 48.656 200.475 42.384H205.595C214.171 42.384 214.171 48.912 217.371 49.296C219.675 49.68 221.595 44.048 221.595 39.312C221.595 34.576 219.675 28.944 217.371 29.328C214.171 29.712 214.171 36.24 205.595 36.24H200.603C201.371 23.824 205.083 10.256 213.403 10.256C218.011 10.256 221.467 12.816 223.899 18.96C226.715 26 240.411 23.44 240.411 17.168C240.411 10.512 231.963 4.112 224.667 4.112ZM275.685 29.712C273.637 26.896 269.541 23.952 263.269 23.952C258.917 23.952 254.181 26.384 251.237 29.712C251.365 28.944 251.493 28.432 251.493 28.048C253.413 19.856 241.253 26.128 236.773 28.304C232.293 30.608 225.637 33.296 225.125 37.136C224.869 39.056 226.661 40.08 227.941 41.744C230.629 45.2 230.117 58 227.429 60.432C226.277 61.584 224.869 62.224 225.125 63.888C225.637 67.728 234.981 68.368 239.973 68.368C244.965 68.368 254.821 67.728 255.333 63.888C255.589 62.352 254.053 61.968 252.901 60.688C249.189 56.848 249.445 46.352 250.085 38.16C250.469 33.808 252.645 32.912 253.925 32.912C257.381 32.912 259.429 36.112 261.477 38.928C268.133 48.656 279.781 35.344 275.685 29.712ZM319.651 48.272C311.459 57.488 299.939 58.64 296.099 50.064C297.763 50.832 300.067 51.088 302.243 51.088C311.843 51.088 322.851 40.976 319.011 33.296C315.939 27.28 308.259 23.952 299.683 23.952C286.627 23.952 275.875 33.936 275.875 46.224C275.875 58.384 286.627 68.368 299.683 68.368C311.075 68.368 320.675 60.944 322.979 50.96L323.235 49.68C323.491 47.504 321.571 46.096 319.651 48.272ZM299.683 28.944C302.883 28.944 303.651 41.488 295.971 46.224C295.587 46.352 295.331 46.48 295.203 46.736C294.947 45.584 294.819 44.432 294.819 43.024C294.819 37.52 296.355 28.944 299.683 28.944ZM369.687 32.4C366.743 26.512 356.119 23.952 347.159 23.952H346.903C334.231 23.952 323.991 29.328 325.015 38.288C326.295 50.448 353.047 51.856 349.975 61.968C348.695 65.936 342.167 66.448 343.063 59.792C344.343 49.296 320.279 50.576 325.015 59.92C327.959 65.808 338.455 68.368 347.543 68.368H347.799C360.215 68.368 370.839 61.328 369.687 54.544C367.895 43.536 342.295 40.72 344.727 30.352C345.751 26.384 352.535 26 351.639 32.528C350.359 43.024 374.423 41.744 369.687 32.4ZM409.379 23.952C405.283 23.952 399.011 27.408 396.451 34.96C396.707 22.672 397.859 10.128 398.243 8.336C400.163 0.0159988 388.003 6.28799 383.523 8.592C379.043 10.896 372.387 13.456 371.875 17.296C371.619 19.344 373.411 20.24 374.691 22.032C377.379 25.488 376.995 32.016 376.995 40.336C376.995 47.632 376.867 58 374.179 60.432C373.027 61.584 371.619 62.224 371.875 63.888C372.387 67.728 381.731 68.368 386.723 68.368C391.715 68.368 401.571 67.728 402.083 63.888C402.339 62.352 400.803 61.968 399.651 60.688C398.243 59.28 397.347 55.824 396.963 51.216C395.299 35.6 409.123 22.16 409.123 38.16V55.824C409.123 66.32 418.339 68.368 423.331 68.368C428.323 68.368 434.851 67.728 435.363 63.888C435.619 62.096 433.699 61.584 432.291 60.304C426.787 55.312 429.475 23.952 409.379 23.952Z" fill="white"/>
</svg>
